<?xml version="1.0" encoding="utf-8"?>
<!-- Generator: Adobe Illustrator 24.0.1, SVG Export Plug-In . SVG Version: 6.00 Build 0)  -->
<svg version="1.1" id="Layer_1" xmlns="http://www.w3.org/2000/svg" xmlns:xlink="http://www.w3.org/1999/xlink" x="0px" y="0px"
	 viewBox="0 0 491 286" style="enable-background:new 0 0 491 286;" xml:space="preserve">
<style type="text/css">
	.st0{opacity:0;fill:#FFFFFF;fill-opacity:0;}
	.st1{fill:none;stroke:#000000;stroke-width:1.98;stroke-miterlimit:10;}
	.st2{stroke:#000000;stroke-width:0.99;stroke-miterlimit:10;}
</style>
<title>Asset 11</title>
<path class="st0" d="M1.9,0.1h487.3c1,0,1.8,0.8,1.8,1.8v282.3c0,1-0.8,1.8-1.8,1.8H1.9c-1,0-1.8-0.8-1.8-1.8V1.9
	C0.1,0.9,0.9,0.1,1.9,0.1z"/>
<ellipse class="st1" cx="153.9" cy="66.1" rx="39.7" ry="39.6"/>
<ellipse class="st2" cx="422.3" cy="96.3" rx="9.9" ry="9.9"/>
<ellipse class="st2" cx="45.2" cy="194.2" rx="9.9" ry="9.9"/>
<rect x="273.5" y="26" class="st2" width="79.4" height="79.2"/>
<ellipse class="st1" cx="246.2" cy="230.3" rx="39.7" ry="39.6"/>
<polygon class="st2" points="194.1,184.3 114.7,263.5 114.7,184.3 "/>
<polygon class="st1" points="273,105.7 193.6,184.8 193.6,105.7 "/>
<polygon class="st1" points="274,105.7 353.4,184.8 274,184.8 "/>
</svg>
